<svg width="27" height="28" viewBox="0 0 27 28" fill="none" xmlns="http://www.w3.org/2000/svg">
<path d="M21 12.1545C20.575 12.1545 20.219 12.0087 19.932 11.717C19.644 11.4263 19.5 11.0657 19.5 10.6352V7.59659H16.5C16.075 7.59659 15.719 7.45073 15.432 7.15902C15.144 6.86833 15 6.50774 15 6.07727C15 5.6468 15.144 5.28571 15.432 4.994C15.719 4.7033 16.075 4.55795 16.5 4.55795H19.5V1.51932C19.5 1.08884 19.644 0.727753 19.932 0.436044C20.219 0.145348 20.575 0 21 0C21.425 0 21.781 0.145348 22.068 0.436044C22.356 0.727753 22.5 1.08884 22.5 1.51932V4.55795H25.5C25.925 4.55795 26.281 4.7033 26.568 4.994C26.856 5.28571 27 5.6468 27 6.07727C27 6.50774 26.856 6.86833 26.568 7.15902C26.281 7.45073 25.925 7.59659 25.5 7.59659H22.5V10.6352C22.5 11.0657 22.356 11.4263 22.068 11.717C21.781 12.0087 21.425 12.1545 21 12.1545ZM25.425 27.4237C22.2 27.4237 19.0565 26.6954 15.9945 25.2389C12.9315 23.7834 10.219 21.8589 7.857 19.4655C5.494 17.0731 3.594 14.3256 2.157 11.2232C0.719 8.12177 0 4.93778 0 1.67125C0 1.21545 0.15 0.835625 0.45 0.531761C0.75 0.227897 1.125 0.0759658 1.575 0.0759658H7.65C8 0.0759658 8.3125 0.189914 8.5875 0.417812C8.8625 0.64571 9.025 0.936912 9.075 1.29142L10.05 6.60903C10.1 6.96354 10.094 7.28614 10.032 7.57684C9.969 7.86854 9.825 8.12835 9.6 8.35625L6 12.0786C7.05 13.9018 8.3625 15.611 9.9375 17.2063C11.5125 18.8016 13.25 20.1816 15.15 21.3464L18.675 17.776C18.9 17.5481 19.194 17.3769 19.557 17.2625C19.919 17.149 20.275 17.1176 20.625 17.1683L25.8 18.2318C26.15 18.3078 26.4375 18.4784 26.6625 18.7438C26.8875 19.0102 27 19.3207 27 19.6752V25.8284C27 26.2842 26.85 26.664 26.55 26.9679C26.25 27.2717 25.875 27.4237 25.425 27.4237ZM4.575 9.19187L7.05 6.685L6.375 3.1146H3.075C3.2 4.1528 3.375 5.17834 3.6 6.19122C3.825 7.2041 4.15 8.20432 4.575 9.19187ZM24 24.3091V20.9666L20.475 20.2069L18 22.7138C18.975 23.1443 19.9625 23.4988 20.9625 23.7773C21.9625 24.0559 22.975 24.2331 24 24.3091Z" fill="url(#paint0_linear_22_123)"/>
<defs>
<linearGradient id="paint0_linear_22_123" x1="27" y1="14" x2="-5.34753e-07" y2="14" gradientUnits="userSpaceOnUse">
<stop stop-color="#C992F4"/>
<stop offset="1" stop-color="#A25CD9"/>
</linearGradient>
</defs>
</svg>
