<svg width="150" height="120" viewBox="0 0 150 120" fill="none" xmlns="http://www.w3.org/2000/svg">
<path d="M71.63 26C67.1234 27.82 60.4934 28.73 51.74 28.73C56.2467 30.6367 59.54 32.9767 61.62 35.75C63.7 38.5234 64.74 42.12 64.74 46.54C64.74 50.96 63.57 54.9467 61.23 58.5C58.89 61.9667 55.51 64.6967 51.09 66.69C46.7567 68.6834 41.6434 69.68 35.75 69.68C32.9767 69.68 30.3334 69.42 27.82 68.9C27.1267 69.2467 26.5634 69.81 26.13 70.59C25.7834 71.2834 25.61 72.02 25.61 72.8C25.61 74.1 26.0867 75.14 27.04 75.92C28.08 76.6134 30.1167 76.96 33.15 76.96H43.55C48.8367 76.96 53.4734 77.8267 57.46 79.56C61.4467 81.2934 64.5234 83.6767 66.69 86.71C68.8567 89.7434 69.94 93.1667 69.94 96.98C69.94 104.173 66.82 109.763 60.58 113.75C54.4267 117.823 45.5 119.86 33.8 119.86C25.3934 119.86 18.7634 118.95 13.91 117.13C9.0567 115.397 5.63336 112.927 3.64003 109.72C1.73336 106.513 0.780029 102.483 0.780029 97.63H19.24C19.24 99.71 19.63 101.357 20.41 102.57C21.2767 103.783 22.7934 104.693 24.96 105.3C27.1267 105.907 30.2467 106.21 34.32 106.21C39.9534 106.21 43.8534 105.517 46.02 104.13C48.1867 102.83 49.27 100.923 49.27 98.41C49.27 96.33 48.4467 94.6834 46.8 93.47C45.1534 92.2567 42.6834 91.65 39.39 91.65H29.38C22.2734 91.65 16.9434 90.3934 13.39 87.88C9.92336 85.28 8.19003 81.9867 8.19003 78C8.19003 75.4867 8.9267 73.06 10.4 70.72C11.8734 68.2934 13.8667 66.3 16.38 64.74C12.0467 62.4 8.88336 59.67 6.89003 56.55C4.98336 53.3434 4.03003 49.4867 4.03003 44.98C4.03003 37.2667 6.80336 31.1567 12.35 26.65C17.8967 22.0567 25.22 19.76 34.32 19.76C41.2534 19.9334 47.1034 19.24 51.87 17.68C56.7234 16.12 61.7067 13.8234 66.82 10.79L71.63 26ZM34.84 33.28C31.6334 33.28 29.0767 34.32 27.17 36.4C25.35 38.3934 24.44 41.1667 24.44 44.72C24.44 48.4467 25.35 51.35 27.17 53.43C29.0767 55.4234 31.6334 56.42 34.84 56.42C38.22 56.42 40.7767 55.4234 42.51 53.43C44.33 51.4367 45.24 48.4467 45.24 44.46C45.24 37.0067 41.7734 33.28 34.84 33.28Z" fill="#141414"/>
<path d="M149.472 91H122.302L96.3016 21.19C97.1683 28.0367 97.8183 34.1034 98.2516 39.39C98.7716 44.59 99.0316 50.7867 99.0316 57.98V91H80.0516V0.910034H106.572L133.222 70.85C131.315 58.9767 130.362 47.7967 130.362 37.31V0.910034H149.472V91Z" fill="#4D0B81"/>
</svg>
