<svg width="24" height="20" viewBox="0 0 24 20" fill="none" xmlns="http://www.w3.org/2000/svg">
<path d="M11.3835 19.2509C11.1924 19.2509 11.0058 19.2281 10.8238 19.1825C10.6426 19.1362 10.466 19.0671 10.2939 18.9751L4.55914 15.9965C4.17682 15.7942 3.88053 15.5232 3.67025 15.1834C3.45998 14.8429 3.35484 14.4612 3.35484 14.0383V8.7429L0.60215 7.28115C0.391876 7.17083 0.238949 7.03293 0.143369 6.86745C0.0477897 6.70197 0 6.5181 0 6.31585C0 6.11359 0.0477897 5.92972 0.143369 5.76424C0.238949 5.59876 0.391876 5.46086 0.60215 5.35054L10.2939 0.275801C10.466 0.183867 10.6426 0.114733 10.8238 0.0683985C11.0058 0.0227993 11.1924 0 11.3835 0C11.5747 0 11.7612 0.0227993 11.9432 0.0683985C12.1244 0.114733 12.3011 0.183867 12.4731 0.275801L23.3979 6.01246C23.589 6.1044 23.7373 6.23752 23.8429 6.41182C23.9476 6.58687 24 6.77551 24 6.97777V14.0383C24 14.3509 23.8899 14.6127 23.6697 14.8238C23.4502 15.0356 23.178 15.1415 22.853 15.1415C22.5281 15.1415 22.2559 15.0356 22.0364 14.8238C21.8162 14.6127 21.7061 14.3509 21.7061 14.0383V7.52937L19.4122 8.7429V14.0383C19.4122 14.4612 19.307 14.8429 19.0968 15.1834C18.8865 15.5232 18.5902 15.7942 18.2079 15.9965L12.4731 18.9751C12.3011 19.0671 12.1244 19.1362 11.9432 19.1825C11.7612 19.2281 11.5747 19.2509 11.3835 19.2509ZM11.3835 10.3977L19.2401 6.31585L11.3835 2.23399L3.52688 6.31585L11.3835 10.3977ZM11.3835 17.0445L17.1183 14.0659V9.90126L12.5018 12.3559C12.3298 12.4478 12.1481 12.5166 11.957 12.5622C11.7658 12.6085 11.5747 12.6317 11.3835 12.6317C11.1924 12.6317 11.0012 12.6085 10.81 12.5622C10.6189 12.5166 10.4373 12.4478 10.2652 12.3559L5.64875 9.90126V14.0659L11.3835 17.0445Z" fill="url(#paint0_linear_27_151)"/>
<defs>
<linearGradient id="paint0_linear_27_151" x1="24" y1="9.61856" x2="5.1354e-07" y2="9.61856" gradientUnits="userSpaceOnUse">
<stop stop-color="#C992F4"/>
<stop offset="1" stop-color="#A25CD9"/>
</linearGradient>
</defs>
</svg>
