<svg width="30" height="31" viewBox="0 0 30 31" fill="none" xmlns="http://www.w3.org/2000/svg">
<path d="M15 30.3864C12.95 30.3864 11.0125 29.9873 9.1875 29.1891C7.3625 28.392 5.769 27.3031 4.407 25.9226C3.044 24.5431 1.969 22.929 1.182 21.0805C0.394 19.232 0 17.2696 0 15.1932C0 13.0915 0.394 11.1229 1.182 9.28759C1.969 7.45124 3.044 5.8433 4.407 4.46376C5.769 3.0832 7.3625 1.99385 9.1875 1.1957C11.0125 0.398568 12.95 0 15 0C17.075 0 19.0185 0.398568 20.8305 1.1957C22.6435 1.99385 24.231 3.0832 25.593 4.46376C26.956 5.8433 28.031 7.45124 28.818 9.28759C29.606 11.1229 30 13.0915 30 15.1932V17.3962C30 18.8902 29.494 20.1624 28.482 21.2127C27.469 22.2641 26.225 22.7898 24.75 22.7898C23.85 22.7898 23.0125 22.5872 22.2375 22.182C21.4625 21.7769 20.825 21.2451 20.325 20.5868C19.65 21.2704 18.8565 21.8088 17.9445 22.2018C17.0315 22.5938 16.05 22.7898 15 22.7898C12.925 22.7898 11.1565 22.0488 9.6945 20.567C8.2315 19.0862 7.5 17.2949 7.5 15.1932C7.5 13.0915 8.2315 11.2997 9.6945 9.81783C11.1565 8.337 12.925 7.59659 15 7.59659C17.075 7.59659 18.844 8.337 20.307 9.81783C21.769 11.2997 22.5 13.0915 22.5 15.1932V17.3962C22.5 18.1305 22.725 18.7063 23.175 19.1236C23.625 19.542 24.15 19.7511 24.75 19.7511C25.35 19.7511 25.875 19.542 26.325 19.1236C26.775 18.7063 27 18.1305 27 17.3962V15.1932C27 11.876 25.8185 9.02069 23.4555 6.62726C21.0935 4.23484 18.275 3.03864 15 3.03864C11.725 3.03864 8.906 4.23484 6.543 6.62726C4.181 9.02069 3 11.876 3 15.1932C3 18.5104 4.181 21.3651 6.543 23.7576C8.906 26.151 11.725 27.3477 15 27.3477H21C21.425 27.3477 21.781 27.4936 22.068 27.7853C22.356 28.076 22.5 28.4366 22.5 28.867C22.5 29.2975 22.356 29.6581 22.068 29.9488C21.781 30.2405 21.425 30.3864 21 30.3864H15ZM15 19.7511C16.25 19.7511 17.3125 19.308 18.1875 18.4217C19.0625 17.5355 19.5 16.4593 19.5 15.1932C19.5 13.9271 19.0625 12.8509 18.1875 11.9646C17.3125 11.0784 16.25 10.6352 15 10.6352C13.75 10.6352 12.6875 11.0784 11.8125 11.9646C10.9375 12.8509 10.5 13.9271 10.5 15.1932C10.5 16.4593 10.9375 17.5355 11.8125 18.4217C12.6875 19.308 13.75 19.7511 15 19.7511Z" fill="url(#paint0_linear_22_118)"/>
<defs>
<linearGradient id="paint0_linear_22_118" x1="30" y1="15" x2="-8.92244e-07" y2="15" gradientUnits="userSpaceOnUse">
<stop stop-color="#C992F4"/>
<stop offset="1" stop-color="#A25CD9"/>
</linearGradient>
</defs>
</svg>
